<mxfile host="65bd71144e">
    <diagram id="eXS8LN6FVQb16z0Dv-I9" name="Page-1">
        <mxGraphModel dx="1558" dy="751" grid="1" gridSize="10" guides="1" tooltips="1" connect="1" arrows="1" fold="1" page="1" pageScale="1" pageWidth="850" pageHeight="1100" background="#FFFFFF" math="0" shadow="0">
            <root>
                <mxCell id="0"/>
                <mxCell id="1" parent="0"/>
                <mxCell id="4" value="Splitting&lt;br&gt;condition" style="ellipse;whiteSpace=wrap;html=1;aspect=fixed;fontFamily=Times New Roman;backgroundOutline=0;" parent="1" vertex="1">
                    <mxGeometry x="190" y="100" width="60" height="60" as="geometry"/>
                </mxCell>
                <mxCell id="5" value="Class&lt;br&gt;A" style="ellipse;whiteSpace=wrap;html=1;aspect=fixed;fontFamily=Times New Roman;backgroundOutline=0;" parent="1" vertex="1">
                    <mxGeometry x="160" y="200" width="40" height="40" as="geometry"/>
                </mxCell>
                <mxCell id="6" value="Splitting&lt;br&gt;condition" style="ellipse;whiteSpace=wrap;html=1;aspect=fixed;fontFamily=Times New Roman;backgroundOutline=0;" parent="1" vertex="1">
                    <mxGeometry x="228.75" y="200" width="61.25" height="61.25" as="geometry"/>
                </mxCell>
                <mxCell id="7" value="Class&lt;br&gt;B" style="ellipse;whiteSpace=wrap;html=1;aspect=fixed;fontFamily=Times New Roman;backgroundOutline=0;" parent="1" vertex="1">
                    <mxGeometry x="280" y="290.62" width="40" height="40" as="geometry"/>
                </mxCell>
                <mxCell id="8" value="Class&lt;br&gt;A" style="ellipse;whiteSpace=wrap;html=1;aspect=fixed;fontFamily=Times New Roman;backgroundOutline=0;" parent="1" vertex="1">
                    <mxGeometry x="200" y="290.62" width="40" height="40" as="geometry"/>
                </mxCell>
                <mxCell id="10" value="" style="endArrow=openThin;html=1;fontFamily=Times New Roman;exitX=0.5;exitY=1;exitDx=0;exitDy=0;entryX=0.5;entryY=0;entryDx=0;entryDy=0;endFill=0;rounded=0;backgroundOutline=0;" parent="1" source="4" target="5" edge="1">
                    <mxGeometry width="50" height="50" relative="1" as="geometry">
                        <mxPoint x="300" y="290" as="sourcePoint"/>
                        <mxPoint x="350" y="240" as="targetPoint"/>
                        <Array as="points">
                            <mxPoint x="220" y="180"/>
                            <mxPoint x="180" y="180"/>
                        </Array>
                    </mxGeometry>
                </mxCell>
                <mxCell id="11" value="" style="endArrow=openThin;html=1;fontFamily=Times New Roman;exitX=0.5;exitY=1;exitDx=0;exitDy=0;entryX=0.5;entryY=0;entryDx=0;entryDy=0;endFill=0;rounded=0;backgroundOutline=0;" parent="1" edge="1">
                    <mxGeometry width="50" height="50" relative="1" as="geometry">
                        <mxPoint x="220" y="160" as="sourcePoint"/>
                        <mxPoint x="259.375" y="200" as="targetPoint"/>
                        <Array as="points">
                            <mxPoint x="220" y="180"/>
                            <mxPoint x="259" y="180"/>
                        </Array>
                    </mxGeometry>
                </mxCell>
                <mxCell id="12" value="" style="endArrow=openThin;html=1;fontFamily=Times New Roman;exitX=0.514;exitY=0.997;exitDx=0;exitDy=0;entryX=0.5;entryY=0;entryDx=0;entryDy=0;endFill=0;rounded=0;exitPerimeter=0;backgroundOutline=0;" parent="1" source="6" target="8" edge="1">
                    <mxGeometry width="50" height="50" relative="1" as="geometry">
                        <mxPoint x="230" y="180.62" as="sourcePoint"/>
                        <mxPoint x="190" y="220.62" as="targetPoint"/>
                        <Array as="points">
                            <mxPoint x="260" y="270.62"/>
                            <mxPoint x="220" y="270.62"/>
                        </Array>
                    </mxGeometry>
                </mxCell>
                <mxCell id="13" value="" style="endArrow=openThin;html=1;fontFamily=Times New Roman;exitX=0.514;exitY=0.995;exitDx=0;exitDy=0;entryX=0.5;entryY=0;entryDx=0;entryDy=0;endFill=0;rounded=0;exitPerimeter=0;backgroundOutline=0;" parent="1" source="6" target="7" edge="1">
                    <mxGeometry width="50" height="50" relative="1" as="geometry">
                        <mxPoint x="270" y="260.62" as="sourcePoint"/>
                        <mxPoint x="230" y="300.62" as="targetPoint"/>
                        <Array as="points">
                            <mxPoint x="260" y="270.62"/>
                            <mxPoint x="300" y="270.62"/>
                        </Array>
                    </mxGeometry>
                </mxCell>
                <mxCell id="14" value="Feature nodes" style="text;html=1;strokeColor=none;fillColor=none;align=center;verticalAlign=middle;whiteSpace=wrap;rounded=0;fontFamily=Times New Roman;" parent="1" vertex="1">
                    <mxGeometry x="340" y="150" width="60" height="30" as="geometry"/>
                </mxCell>
                <mxCell id="15" value="" style="endArrow=classic;html=1;rounded=0;fontFamily=Times New Roman;exitX=0;exitY=0;exitDx=0;exitDy=0;opacity=50;backgroundOutline=0;" parent="1" source="14" edge="1">
                    <mxGeometry width="50" height="50" relative="1" as="geometry">
                        <mxPoint x="260" y="220" as="sourcePoint"/>
                        <mxPoint x="260" y="140" as="targetPoint"/>
                    </mxGeometry>
                </mxCell>
                <mxCell id="16" value="" style="endArrow=classic;html=1;rounded=0;fontFamily=Times New Roman;exitX=0;exitY=1;exitDx=0;exitDy=0;opacity=50;backgroundOutline=0;" parent="1" source="14" edge="1">
                    <mxGeometry width="50" height="50" relative="1" as="geometry">
                        <mxPoint x="350" y="160" as="sourcePoint"/>
                        <mxPoint x="300" y="220" as="targetPoint"/>
                    </mxGeometry>
                </mxCell>
                <mxCell id="17" value="Leaf&lt;br&gt;&amp;nbsp;nodes" style="text;html=1;strokeColor=none;fillColor=none;align=center;verticalAlign=middle;whiteSpace=wrap;rounded=0;fontFamily=Times New Roman;backgroundOutline=0;" parent="1" vertex="1">
                    <mxGeometry x="90" y="270" width="60" height="30" as="geometry"/>
                </mxCell>
                <mxCell id="18" value="" style="endArrow=classic;html=1;rounded=0;fontFamily=Times New Roman;exitX=1;exitY=0;exitDx=0;exitDy=0;opacity=50;backgroundOutline=0;" parent="1" source="17" edge="1">
                    <mxGeometry width="50" height="50" relative="1" as="geometry">
                        <mxPoint x="350" y="160" as="sourcePoint"/>
                        <mxPoint x="170" y="250" as="targetPoint"/>
                    </mxGeometry>
                </mxCell>
                <mxCell id="19" value="" style="endArrow=classic;html=1;rounded=0;fontFamily=Times New Roman;exitX=1;exitY=1;exitDx=0;exitDy=0;opacity=50;backgroundOutline=0;" parent="1" source="17" edge="1">
                    <mxGeometry width="50" height="50" relative="1" as="geometry">
                        <mxPoint x="160" y="280" as="sourcePoint"/>
                        <mxPoint x="190" y="310" as="targetPoint"/>
                    </mxGeometry>
                </mxCell>
            </root>
        </mxGraphModel>
    </diagram>
</mxfile>